<svg xmlns="http://www.w3.org/2000/svg" width="1300" height="1200" viewBox="0 0 1300 1200"><defs><marker id="arw" viewBox="0 0 10 10" refX="8.5" refY="5" markerWidth="7.5" markerHeight="7.5" orient="auto-start-reverse"><path d="M0 0 L10 5 L0 10 z" fill="#7C766C"/></marker><marker id="arwR" viewBox="0 0 10 10" refX="8.5" refY="5" markerWidth="7.5" markerHeight="7.5" orient="auto-start-reverse"><path d="M0 0 L10 5 L0 10 z" fill="#D65A59"/></marker><marker id="arwG" viewBox="0 0 10 10" refX="8.5" refY="5" markerWidth="7.5" markerHeight="7.5" orient="auto-start-reverse"><path d="M0 0 L10 5 L0 10 z" fill="#199e70"/></marker></defs><text x="56" y="52" font-family="Noto Sans" font-size="13" font-weight="700" fill="#1F9E72" text-anchor="start" letter-spacing="2.5">TAHAP 1 . PRAPEMROSESAN</text><text x="55" y="88" font-family="Noto Sans" font-size="29" font-weight="800" fill="#1A1614" text-anchor="start">11 Berkas CSV Mentah menjadi Satu Dataset Bersih</text><text x="56" y="116" font-family="Noto Sans" font-size="15" font-weight="400" fill="#5C564F" text-anchor="start">Data mentah tidak pernah diubah; pengurai memeriksa bentuk setiap baris secara eksplisit</text><rect x="56" y="132" width="64" height="4" rx="2" fill="#1baf7a"/><text x="1244" y="52" font-family="Noto Sans" font-size="13" font-weight="700" fill="#8A837A" text-anchor="end">build_dataset.py</text><rect x="300" y="171" width="520" height="90.5" rx="13" ry="13" fill="#1a140f" opacity="0.06"/><rect x="300" y="168" width="520" height="90.5" rx="13" ry="13" fill="#FCEED1" stroke="#E0A83A" stroke-width="1.8"/><rect x="300" y="179" width="5" height="68.5" rx="2.5" fill="#E0A83A"/><text x="318" y="197.5" font-family="Noto Sans" font-size="15.5" font-weight="700" fill="#1A1614" text-anchor="start">11 berkas CSV mentah</text><text x="318" y="216.0" font-family="Noto Sans" font-size="12.5" font-weight="400" fill="#5C564F" text-anchor="start">Dua skema header (sepuluh berkas biasa dan satu berthread),</text><text x="318" y="234.5" font-family="Noto Sans" font-size="12.5" font-weight="400" fill="#5C564F" text-anchor="start">hasil crawling komentar Instagram apa adanya</text><rect x="300" y="291.5" width="520" height="72.0" rx="13" ry="13" fill="#1a140f" opacity="0.06"/><rect x="300" y="288.5" width="520" height="72.0" rx="13" ry="13" fill="#E0F2EA" stroke="#1F9E72" stroke-width="1.8"/><rect x="300" y="299.5" width="5" height="50.0" rx="2.5" fill="#1F9E72"/><text x="318" y="318.0" font-family="Noto Sans" font-size="15.5" font-weight="700" fill="#1A1614" text-anchor="start">Membaca baris demi baris (csv.reader)</text><text x="318" y="336.5" font-family="Noto Sans" font-size="12.5" font-weight="400" fill="#5C564F" text-anchor="start">Tidak ada tebakan; setiap baris diperiksa secara eksplisit</text><path d="M560.0 258.5 L560.0 288.5" fill="none" stroke="#7C766C" stroke-width="2.0" marker-end="url(#arw)" stroke-linecap="round" stroke-linejoin="round"/><polygon points="560.0,386.5 740.0,448.5 560.0,510.5 380.0,448.5" fill="#FCEED1" stroke="#E0A83A" stroke-width="1.8"/><text x="560.0" y="437.25" font-family="Noto Sans" font-size="12.5" font-weight="600" fill="#1A1614" text-anchor="middle">Bentuk baris valid?</text><text x="560.0" y="453.75" font-family="Noto Sans" font-size="12.5" font-weight="600" fill="#1A1614" text-anchor="middle">jumlah field, pola tanggal</text><text x="560.0" y="470.25" font-family="Noto Sans" font-size="12.5" font-weight="600" fill="#1A1614" text-anchor="middle">(dd/mm/yyyy), pola jam (hh.mm.ss)</text><path d="M560.0 360.5 L560.0 386.5" fill="none" stroke="#7C766C" stroke-width="2.0" marker-end="url(#arw)" stroke-linecap="round" stroke-linejoin="round"/><rect x="960" y="406.5" width="300" height="87.0" rx="13" ry="13" fill="#1a140f" opacity="0.06"/><rect x="960" y="403.5" width="300" height="87.0" rx="13" ry="13" fill="#FBE2E1" stroke="#D65A59" stroke-width="1.8"/><rect x="960" y="414.5" width="5" height="65.0" rx="2.5" fill="#D65A59"/><text x="978" y="431.5" font-family="Noto Sans" font-size="14" font-weight="700" fill="#1A1614" text-anchor="start">Anomali dicatat, proses berhenti</text><text x="978" y="449.0" font-family="Noto Sans" font-size="11.5" font-weight="400" fill="#5C564F" text-anchor="start">Program dihentikan (SystemExit) bila format</text><text x="978" y="466.5" font-family="Noto Sans" font-size="11.5" font-weight="400" fill="#5C564F" text-anchor="start">berubah, sebab lebih baik gagal daripada cacat</text><path d="M740.0 448.5 L960 448.5" fill="none" stroke="#D65A59" stroke-width="2.0" marker-end="url(#arwR)" stroke-linecap="round" stroke-linejoin="round"/><rect x="826.2" y="423.5" width="47.6" height="22" rx="11.0" fill="#FFFFFF" stroke="#E3DED6" stroke-width="1"/><text x="850.0" y="438.58" font-family="Noto Sans" font-size="12" font-weight="600" fill="#5C564F" text-anchor="middle">tidak</text><rect x="300" y="537.5" width="520" height="90.5" rx="13" ry="13" fill="#1a140f" opacity="0.06"/><rect x="300" y="534.5" width="520" height="90.5" rx="13" ry="13" fill="#E0F2EA" stroke="#1F9E72" stroke-width="1.8"/><rect x="300" y="545.5" width="5" height="68.5" rx="2.5" fill="#1F9E72"/><text x="318" y="564.0" font-family="Noto Sans" font-size="15.5" font-weight="700" fill="#1A1614" text-anchor="start">Menggabungkan dua field timestamp</text><text x="318" y="582.5" font-family="Noto Sans" font-size="12.5" font-weight="400" fill="#5C564F" text-anchor="start">Nilai "30/6/2026, 21.43.41" mengandung koma tanpa</text><text x="318" y="601.0" font-family="Noto Sans" font-size="12.5" font-weight="400" fill="#5C564F" text-anchor="start">kutip, sehingga tiap baris memiliki satu field ekstra</text><path d="M560.0 510.5 L560.0 534.5" fill="none" stroke="#7C766C" stroke-width="2.0" marker-end="url(#arw)" stroke-linecap="round" stroke-linejoin="round"/><rect x="546.28" y="511.5" width="27.44" height="22" rx="11.0" fill="#FFFFFF" stroke="#E3DED6" stroke-width="1"/><text x="560.0" y="526.58" font-family="Noto Sans" font-size="12" font-weight="600" fill="#5C564F" text-anchor="middle">ya</text><rect x="300" y="658.0" width="520" height="72.0" rx="13" ry="13" fill="#1a140f" opacity="0.06"/><rect x="300" y="655.0" width="520" height="72.0" rx="13" ry="13" fill="#E0F2EA" stroke="#1F9E72" stroke-width="1.8"/><rect x="300" y="666.0" width="5" height="50.0" rx="2.5" fill="#1F9E72"/><text x="318" y="684.5" font-family="Noto Sans" font-size="15.5" font-weight="700" fill="#1A1614" text-anchor="start">Objek Komentar yang terstruktur</text><text x="318" y="703.0" font-family="Noto Sans" font-size="12.5" font-weight="400" fill="#5C564F" text-anchor="start">id, post, username, waktu, likes, teks, is_reply</text><path d="M560.0 625.0 L560.0 655.0" fill="none" stroke="#7C766C" stroke-width="2.0" marker-end="url(#arw)" stroke-linecap="round" stroke-linejoin="round"/><rect x="300" y="760.0" width="520" height="72.0" rx="13" ry="13" fill="#1a140f" opacity="0.06"/><rect x="300" y="757.0" width="520" height="72.0" rx="13" ry="13" fill="#E0F2EA" stroke="#1F9E72" stroke-width="1.8"/><rect x="300" y="768.0" width="5" height="50.0" rx="2.5" fill="#1F9E72"/><text x="318" y="786.5" font-family="Noto Sans" font-size="15.5" font-weight="700" fill="#1A1614" text-anchor="start">DataFrame terpadu (38.845 baris)</text><text x="318" y="805.0" font-family="Noto Sans" font-size="12.5" font-weight="400" fill="#5C564F" text-anchor="start">Urutan deterministik sehingga hash Parquet menjadi versi data</text><path d="M560.0 727.0 L560.0 757.0" fill="none" stroke="#7C766C" stroke-width="2.0" marker-end="url(#arw)" stroke-linecap="round" stroke-linejoin="round"/><rect x="300" y="854.0" width="520" height="40" rx="13" ry="13" fill="#1a140f" opacity="0.06"/><rect x="300" y="851.0" width="520" height="40" rx="13" ry="13" fill="#E0F2EA" stroke="#1F9E72" stroke-width="1.8"/><rect x="300" y="862.0" width="5" height="18" rx="2.5" fill="#1F9E72"/><text x="318" y="879.5" font-family="Noto Sans" font-size="14.5" font-weight="700" fill="#1A1614" text-anchor="start">Menambahkan kolom turunan</text><path d="M560.0 829.0 L560.0 851.0" fill="none" stroke="#7C766C" stroke-width="2.0" marker-end="url(#arw)" stroke-linecap="round" stroke-linejoin="round"/><rect x="300" y="913.0" width="250" height="52" rx="10" fill="#1a140f" opacity="0.05"/><rect x="300" y="911.0" width="250" height="52" rx="10" fill="#F0EDE8" stroke="#9A9186" stroke-width="1.5"/><text x="311" y="932.5" font-family="Noto Sans" font-size="12.5" font-weight="700" fill="#1A1614" text-anchor="start">teks_bersih</text><text x="311" y="946.9" font-family="Noto Sans" font-size="10.4" font-weight="400" fill="#5C564F" text-anchor="start">bersihkan(): NFKC, buang kontrol, emoji tetap</text><rect x="570" y="913.0" width="250" height="52" rx="10" fill="#1a140f" opacity="0.05"/><rect x="570" y="911.0" width="250" height="52" rx="10" fill="#F0EDE8" stroke="#9A9186" stroke-width="1.5"/><text x="581" y="932.5" font-family="Noto Sans" font-size="12.5" font-weight="700" fill="#1A1614" text-anchor="start">fase</text><text x="581" y="946.9" font-family="Noto Sans" font-size="10.4" font-weight="400" fill="#5C564F" text-anchor="start">fase_peristiwa(): empat fase peristiwa</text><rect x="300" y="973.0" width="250" height="52" rx="10" fill="#1a140f" opacity="0.05"/><rect x="300" y="971.0" width="250" height="52" rx="10" fill="#F0EDE8" stroke="#9A9186" stroke-width="1.5"/><text x="311" y="992.5" font-family="Noto Sans" font-size="12.5" font-weight="700" fill="#1A1614" text-anchor="start">hanya_emoji dan emoji</text><text x="311" y="1006.9" font-family="Noto Sans" font-size="10.4" font-weight="400" fill="#5C564F" text-anchor="start">11 persen komentar hanya emoji, tetap sinyal</text><rect x="570" y="973.0" width="250" height="52" rx="10" fill="#1a140f" opacity="0.05"/><rect x="570" y="971.0" width="250" height="52" rx="10" fill="#F0EDE8" stroke="#9A9186" stroke-width="1.5"/><text x="581" y="992.5" font-family="Noto Sans" font-size="12.5" font-weight="700" fill="#1A1614" text-anchor="start">klaster_dup</text><text x="581" y="1006.9" font-family="Noto Sans" font-size="10.4" font-weight="400" fill="#5C564F" text-anchor="start">kunci_duplikat menghasilkan 31.405 klaster</text><rect x="435.0" y="1033.0" width="250" height="52" rx="10" fill="#1a140f" opacity="0.05"/><rect x="435.0" y="1031.0" width="250" height="52" rx="10" fill="#F0EDE8" stroke="#9A9186" stroke-width="1.5"/><text x="446.0" y="1052.5" font-family="Noto Sans" font-size="12.5" font-weight="700" fill="#1A1614" text-anchor="start">n_karakter dan ukuran_klaster</text><text x="446.0" y="1066.9" font-family="Noto Sans" font-size="10.4" font-weight="400" fill="#5C564F" text-anchor="start">metadata untuk sampling dan tampilan</text><rect x="300" y="1112.0" width="520" height="90.5" rx="13" ry="13" fill="#1a140f" opacity="0.06"/><rect x="300" y="1109.0" width="520" height="90.5" rx="13" ry="13" fill="#F0EDE8" stroke="#9A9186" stroke-width="1.8"/><rect x="300" y="1120.0" width="5" height="68.5" rx="2.5" fill="#9A9186"/><text x="318" y="1138.5" font-family="Noto Sans" font-size="15.5" font-weight="700" fill="#1A1614" text-anchor="start">komentar.parquet dan profil.json</text><text x="318" y="1157.0" font-family="Noto Sans" font-size="12.5" font-weight="400" fill="#5C564F" text-anchor="start">38.845 baris siap pakai; profil.json menyimpan sha256</text><text x="318" y="1175.5" font-family="Noto Sans" font-size="12.5" font-weight="400" fill="#5C564F" text-anchor="start">setiap berkas mentah sebagai jejak asal-usul data</text><path d="M560.0 891.0 L560.0 1023.0" fill="none" stroke="#7C766C" stroke-width="1.6" marker-end="url(#arw)" stroke-linecap="round" stroke-linejoin="round"/><path d="M560.0 1143.0 L560.0 1109.0" fill="none" stroke="#7C766C" stroke-width="2.0" marker-end="url(#arw)" stroke-linecap="round" stroke-linejoin="round"/><rect x="960" y="961.0" width="300" height="52" rx="10" fill="#1a140f" opacity="0.05"/><rect x="960" y="959.0" width="300" height="52" rx="10" fill="#FFFDF6" stroke="#D9C9A0" stroke-width="1.5"/><text x="971" y="981.0" font-family="Noto Sans" font-size="13" font-weight="700" fill="#1A1614" text-anchor="start">Jebakan utama</text><text x="971" y="996.0" font-family="Noto Sans" font-size="11" font-weight="400" fill="#5C564F" text-anchor="start">timestamp berkoma tanpa tanda kutip</text></svg>