<svg xmlns="http://www.w3.org/2000/svg" width="1320" height="900" viewBox="0 0 1320 900"><defs><marker id="arw" viewBox="0 0 10 10" refX="8.5" refY="5" markerWidth="7.5" markerHeight="7.5" orient="auto-start-reverse"><path d="M0 0 L10 5 L0 10 z" fill="#7C766C"/></marker><marker id="arwR" viewBox="0 0 10 10" refX="8.5" refY="5" markerWidth="7.5" markerHeight="7.5" orient="auto-start-reverse"><path d="M0 0 L10 5 L0 10 z" fill="#D65A59"/></marker><marker id="arwG" viewBox="0 0 10 10" refX="8.5" refY="5" markerWidth="7.5" markerHeight="7.5" orient="auto-start-reverse"><path d="M0 0 L10 5 L0 10 z" fill="#199e70"/></marker></defs><text x="56" y="52" font-family="Noto Sans" font-size="13" font-weight="700" fill="#1F9E72" text-anchor="start" letter-spacing="2.5">TAHAP 4 . MODEL</text><text x="55" y="88" font-family="Noto Sans" font-size="29" font-weight="800" fill="#1A1614" text-anchor="start">Model Multitugas IndoBERT: Arsitektur, Pelatihan, Kalibrasi</text><text x="56" y="116" font-family="Noto Sans" font-size="15" font-weight="400" fill="#5C564F" text-anchor="start">Satu encoder berbagi tiga kepala sehingga model ringkas, cepat, dan saling menguatkan</text><rect x="56" y="132" width="64" height="4" rx="2" fill="#1baf7a"/><text x="1264" y="52" font-family="Noto Sans" font-size="13" font-weight="700" fill="#8A837A" text-anchor="end">model.py . train.py</text><rect x="40" y="150" width="1240" height="1.5" fill="#E7E1D8"/><text x="56" y="172" font-family="Noto Sans" font-size="12.5" font-weight="700" fill="#1F9E72" text-anchor="start" letter-spacing="1.5">ARSITEKTUR</text><rect x="60" y="191" width="250" height="69" rx="13" ry="13" fill="#1a140f" opacity="0.06"/><rect x="60" y="188" width="250" height="69" rx="13" ry="13" fill="#E1EFEB" stroke="#0E6B5E" stroke-width="1.8"/><rect x="60" y="199" width="5" height="47" rx="2.5" fill="#0E6B5E"/><text x="78" y="216" font-family="Noto Sans" font-size="14" font-weight="700" fill="#1A1614" text-anchor="start">Tokenizer IndoBERT</text><text x="78" y="233" font-family="Noto Sans" font-size="11" font-weight="400" fill="#5C564F" text-anchor="start">truncation, max_len 128, padding</text><rect x="360" y="191" width="250" height="69" rx="13" ry="13" fill="#1a140f" opacity="0.06"/><rect x="360" y="188" width="250" height="69" rx="13" ry="13" fill="#E1EFEB" stroke="#0E6B5E" stroke-width="1.8"/><rect x="360" y="199" width="5" height="47" rx="2.5" fill="#0E6B5E"/><text x="378" y="216" font-family="Noto Sans" font-size="14" font-weight="700" fill="#1A1614" text-anchor="start">Encoder IndoBERT</text><text x="378" y="233" font-family="Noto Sans" font-size="11" font-weight="400" fill="#5C564F" text-anchor="start">indobert-base-p1 (BertModel)</text><rect x="660" y="191" width="250" height="69" rx="13" ry="13" fill="#1a140f" opacity="0.06"/><rect x="660" y="188" width="250" height="69" rx="13" ry="13" fill="#E1EFEB" stroke="#0E6B5E" stroke-width="1.8"/><rect x="660" y="199" width="5" height="47" rx="2.5" fill="#0E6B5E"/><text x="678" y="216" font-family="Noto Sans" font-size="14" font-weight="700" fill="#1A1614" text-anchor="start">Mean-pooling</text><text x="678" y="233" font-family="Noto Sans" font-size="11" font-weight="400" fill="#5C564F" text-anchor="start">rata-rata token valid, bukan token [CLS]</text><path d="M310 222.5 L360 222.5" fill="none" stroke="#7C766C" stroke-width="2.0" marker-end="url(#arw)" stroke-linecap="round" stroke-linejoin="round"/><path d="M610 222.5 L660 222.5" fill="none" stroke="#7C766C" stroke-width="2.0" marker-end="url(#arw)" stroke-linecap="round" stroke-linejoin="round"/><rect x="980" y="184" width="300" height="40" rx="10" fill="#1a140f" opacity="0.05"/><rect x="980" y="182" width="300" height="40" rx="10" fill="#F6E7F1" stroke="#B0559A" stroke-width="1.5"/><text x="991" y="204" font-family="Noto Sans" font-size="13" font-weight="700" fill="#1A1614" text-anchor="start">Kepala spam (2)</text><text x="991" y="218.4" font-family="Noto Sans" font-size="10.4" font-weight="400" fill="#5C564F" text-anchor="start">bukan_spam, spam</text><path d="M910 222.5 L970 222.5 L970 202 L980 202" fill="none" stroke="#7C766C" stroke-width="1.6" marker-end="url(#arw)" stroke-linecap="round" stroke-linejoin="round"/><rect x="980" y="228" width="300" height="40" rx="10" fill="#1a140f" opacity="0.05"/><rect x="980" y="226" width="300" height="40" rx="10" fill="#E1ECFB" stroke="#2F79D6" stroke-width="1.5"/><text x="991" y="248" font-family="Noto Sans" font-size="13" font-weight="700" fill="#1A1614" text-anchor="start">Kepala sikap (6)</text><text x="991" y="262.4" font-family="Noto Sans" font-size="10.4" font-weight="400" fill="#5C564F" text-anchor="start">pro, kontra, dua kritik, netral, tak_jelas</text><path d="M910 222.5 L970 222.5 L970 246 L980 246" fill="none" stroke="#7C766C" stroke-width="1.6" marker-end="url(#arw)" stroke-linecap="round" stroke-linejoin="round"/><rect x="980" y="272" width="300" height="40" rx="10" fill="#1a140f" opacity="0.05"/><rect x="980" y="270" width="300" height="40" rx="10" fill="#E6EDF9" stroke="#3F6FB0" stroke-width="1.5"/><text x="991" y="292" font-family="Noto Sans" font-size="13" font-weight="700" fill="#1A1614" text-anchor="start">Kepala emosi (5)</text><text x="991" y="306.4" font-family="Noto Sans" font-size="10.4" font-weight="400" fill="#5C564F" text-anchor="start">marah, duka, sinis, harapan, netral</text><path d="M910 222.5 L970 222.5 L970 290 L980 290" fill="none" stroke="#7C766C" stroke-width="1.6" marker-end="url(#arw)" stroke-linecap="round" stroke-linejoin="round"/><rect x="40" y="320" width="1240" height="1.5" fill="#E7E1D8"/><text x="56" y="342" font-family="Noto Sans" font-size="12.5" font-weight="700" fill="#1F9E72" text-anchor="start" letter-spacing="1.5">PELATIHAN</text><rect x="60" y="361" width="268" height="69" rx="13" ry="13" fill="#1a140f" opacity="0.06"/><rect x="60" y="358" width="268" height="69" rx="13" ry="13" fill="#E1ECFB" stroke="#2F79D6" stroke-width="1.8"/><rect x="60" y="369" width="5" height="47" rx="2.5" fill="#2F79D6"/><text x="78" y="386" font-family="Noto Sans" font-size="14" font-weight="700" fill="#1A1614" text-anchor="start">Data latih (6.233)</text><text x="78" y="403" font-family="Noto Sans" font-size="11" font-weight="400" fill="#5C564F" text-anchor="start">gold dan silver, kolom teks_bersih</text><rect x="360" y="361" width="320" height="86" rx="13" ry="13" fill="#1a140f" opacity="0.06"/><rect x="360" y="358" width="320" height="86" rx="13" ry="13" fill="#E1EFEB" stroke="#0E6B5E" stroke-width="1.8"/><rect x="360" y="369" width="5" height="64" rx="2.5" fill="#0E6B5E"/><text x="378" y="386" font-family="Noto Sans" font-size="14" font-weight="700" fill="#1A1614" text-anchor="start">Loss cross-entropy berbobot</text><text x="378" y="403" font-family="Noto Sans" font-size="11" font-weight="400" fill="#5C564F" text-anchor="start">bobot invers frekuensi kelas; contoh</text><text x="378" y="420" font-family="Noto Sans" font-size="11" font-weight="400" fill="#5C564F" text-anchor="start">silver diberi bobot 0,4 karena lebih berisik</text><rect x="712" y="361" width="250" height="69" rx="13" ry="13" fill="#1a140f" opacity="0.06"/><rect x="712" y="358" width="250" height="69" rx="13" ry="13" fill="#E1EFEB" stroke="#0E6B5E" stroke-width="1.8"/><rect x="712" y="369" width="5" height="47" rx="2.5" fill="#0E6B5E"/><text x="730" y="386" font-family="Noto Sans" font-size="14" font-weight="700" fill="#1A1614" text-anchor="start">AdamW, warmup, dan AMP</text><text x="730" y="403" font-family="Noto Sans" font-size="11" font-weight="400" fill="#5C564F" text-anchor="start">6 epoch, lr 0,00002, klip gradien</text><rect x="994" y="361" width="286" height="69" rx="13" ry="13" fill="#1a140f" opacity="0.06"/><rect x="994" y="358" width="286" height="69" rx="13" ry="13" fill="#E6EDF9" stroke="#3F6FB0" stroke-width="1.8"/><rect x="994" y="369" width="5" height="47" rx="2.5" fill="#3F6FB0"/><text x="1012" y="386" font-family="Noto Sans" font-size="14" font-weight="700" fill="#1A1614" text-anchor="start">Memilih epoch terbaik</text><text x="1012" y="403" font-family="Noto Sans" font-size="11" font-weight="400" fill="#5C564F" text-anchor="start">berdasarkan macro-F1 sikap pada validasi</text><path d="M328 401.0 L360 401.0" fill="none" stroke="#7C766C" stroke-width="2.0" marker-end="url(#arw)" stroke-linecap="round" stroke-linejoin="round"/><path d="M680 401.0 L712 401.0" fill="none" stroke="#7C766C" stroke-width="2.0" marker-end="url(#arw)" stroke-linecap="round" stroke-linejoin="round"/><path d="M962 401.0 L994 401.0" fill="none" stroke="#7C766C" stroke-width="2.0" marker-end="url(#arw)" stroke-linecap="round" stroke-linejoin="round"/><rect x="40" y="500" width="1240" height="1.5" fill="#E7E1D8"/><text x="56" y="522" font-family="Noto Sans" font-size="12.5" font-weight="700" fill="#1F9E72" text-anchor="start" letter-spacing="1.5">KALIBRASI, ABSTAIN, DAN ARTEFAK</text><rect x="60" y="545" width="400" height="87.5" rx="13" ry="13" fill="#1a140f" opacity="0.06"/><rect x="60" y="542" width="400" height="87.5" rx="13" ry="13" fill="#F6E7F1" stroke="#B0559A" stroke-width="1.8"/><rect x="60" y="553" width="5" height="65.5" rx="2.5" fill="#B0559A"/><text x="78" y="570.5" font-family="Noto Sans" font-size="14.5" font-weight="700" fill="#1A1614" text-anchor="start">Penskalaan suhu tiap tugas</text><text x="78" y="588.0" font-family="Noto Sans" font-size="11.5" font-weight="400" fill="#5C564F" text-anchor="start">mencari suhu T yang meminimalkan NLL</text><text x="78" y="605.5" font-family="Noto Sans" font-size="11.5" font-weight="400" fill="#5C564F" text-anchor="start">pada validasi (LBFGS, dibatasi 0,5 sampai 5,0)</text><rect x="500" y="545" width="400" height="87.5" rx="13" ry="13" fill="#1a140f" opacity="0.06"/><rect x="500" y="542" width="400" height="87.5" rx="13" ry="13" fill="#F6E7F1" stroke="#B0559A" stroke-width="1.8"/><rect x="500" y="553" width="5" height="65.5" rx="2.5" fill="#B0559A"/><text x="518" y="570.5" font-family="Noto Sans" font-size="14.5" font-weight="700" fill="#1A1614" text-anchor="start">Ambang abstain tiap tugas</text><text x="518" y="588.0" font-family="Noto Sans" font-size="11.5" font-weight="400" fill="#5C564F" text-anchor="start">ambang keyakinan agar akurasi bagian</text><text x="518" y="605.5" font-family="Noto Sans" font-size="11.5" font-weight="400" fill="#5C564F" text-anchor="start">terjawab minimal 80 persen</text><path d="M460 585.75 L500 585.75" fill="none" stroke="#7C766C" stroke-width="2.0" marker-end="url(#arw)" stroke-linecap="round" stroke-linejoin="round"/><rect x="940" y="541" width="340" height="105.0" rx="13" ry="13" fill="#1a140f" opacity="0.06"/><rect x="940" y="538" width="340" height="105.0" rx="13" ry="13" fill="#F0EDE8" stroke="#9A9186" stroke-width="1.8"/><rect x="940" y="549" width="5" height="83.0" rx="2.5" fill="#9A9186"/><text x="958" y="566.5" font-family="Noto Sans" font-size="14.5" font-weight="700" fill="#1A1614" text-anchor="start">Artefak models/sentimen-id</text><text x="958" y="584.0" font-family="Noto Sans" font-size="11.5" font-weight="400" fill="#5C564F" text-anchor="start">pytorch_model.bin, tokenizer, config,</text><text x="958" y="601.5" font-family="Noto Sans" font-size="11.5" font-weight="400" fill="#5C564F" text-anchor="start">meta.json berisi peta label, suhu, ambang,</text><text x="958" y="619.0" font-family="Noto Sans" font-size="11.5" font-weight="400" fill="#5C564F" text-anchor="start">hash data, hiperparameter, dan macro-F1</text><path d="M900 585.75 L940 585.75" fill="none" stroke="#7C766C" stroke-width="2.0" marker-end="url(#arw)" stroke-linecap="round" stroke-linejoin="round"/><text x="56" y="720" font-family="Noto Sans" font-size="12.5" font-weight="700" fill="#1F9E72" text-anchor="start" letter-spacing="1.5">Angka kunci</text><rect x="56" y="736" width="152" height="60" rx="10" fill="#F0EDE8" stroke="#Dcd6cc" stroke-width="1.4"/><text x="72" y="766" font-family="Noto Sans" font-size="22" font-weight="800" fill="#1A1614" text-anchor="start">1,52</text><text x="72" y="786" font-family="Noto Sans" font-size="11.5" font-weight="600" fill="#5C564F" text-anchor="start">suhu sikap</text><rect x="224" y="736" width="152" height="60" rx="10" fill="#F0EDE8" stroke="#Dcd6cc" stroke-width="1.4"/><text x="240" y="766" font-family="Noto Sans" font-size="22" font-weight="800" fill="#1A1614" text-anchor="start">1,18</text><text x="240" y="786" font-family="Noto Sans" font-size="11.5" font-weight="600" fill="#5C564F" text-anchor="start">suhu emosi</text><rect x="392" y="736" width="152" height="60" rx="10" fill="#F0EDE8" stroke="#Dcd6cc" stroke-width="1.4"/><text x="408" y="766" font-family="Noto Sans" font-size="22" font-weight="800" fill="#1A1614" text-anchor="start">0,50</text><text x="408" y="786" font-family="Noto Sans" font-size="11.5" font-weight="600" fill="#5C564F" text-anchor="start">suhu spam</text><rect x="560" y="736" width="152" height="60" rx="10" fill="#F0EDE8" stroke="#Dcd6cc" stroke-width="1.4"/><text x="576" y="766" font-family="Noto Sans" font-size="22" font-weight="800" fill="#1A1614" text-anchor="start">0,62</text><text x="576" y="786" font-family="Noto Sans" font-size="11.5" font-weight="600" fill="#5C564F" text-anchor="start">ambang sikap</text><rect x="728" y="736" width="152" height="60" rx="10" fill="#F0EDE8" stroke="#Dcd6cc" stroke-width="1.4"/><text x="744" y="766" font-family="Noto Sans" font-size="22" font-weight="800" fill="#1A1614" text-anchor="start">0,64</text><text x="744" y="786" font-family="Noto Sans" font-size="11.5" font-weight="600" fill="#5C564F" text-anchor="start">ambang emosi</text><rect x="896" y="736" width="152" height="60" rx="10" fill="#F0EDE8" stroke="#Dcd6cc" stroke-width="1.4"/><text x="912" y="766" font-family="Noto Sans" font-size="22" font-weight="800" fill="#1A1614" text-anchor="start">1</text><text x="912" y="786" font-family="Noto Sans" font-size="11.5" font-weight="600" fill="#5C564F" text-anchor="start">epoch terbaik</text><rect x="1064" y="736" width="152" height="60" rx="10" fill="#F0EDE8" stroke="#Dcd6cc" stroke-width="1.4"/><text x="1080" y="766" font-family="Noto Sans" font-size="22" font-weight="800" fill="#1A1614" text-anchor="start">0,51</text><text x="1080" y="786" font-family="Noto Sans" font-size="11.5" font-weight="600" fill="#5C564F" text-anchor="start">val macro-F1</text></svg>