<svg xmlns="http://www.w3.org/2000/svg" width="1200" height="1290" viewBox="0 0 1200 1290"><defs><marker id="arw" viewBox="0 0 10 10" refX="8.5" refY="5" markerWidth="7.5" markerHeight="7.5" orient="auto-start-reverse"><path d="M0 0 L10 5 L0 10 z" fill="#7C766C"/></marker><marker id="arwR" viewBox="0 0 10 10" refX="8.5" refY="5" markerWidth="7.5" markerHeight="7.5" orient="auto-start-reverse"><path d="M0 0 L10 5 L0 10 z" fill="#D65A59"/></marker><marker id="arwG" viewBox="0 0 10 10" refX="8.5" refY="5" markerWidth="7.5" markerHeight="7.5" orient="auto-start-reverse"><path d="M0 0 L10 5 L0 10 z" fill="#199e70"/></marker></defs><text x="56" y="52" font-family="Noto Sans" font-size="13" font-weight="700" fill="#1F9E72" text-anchor="start" letter-spacing="2.5">PENYAJIAN . INFERENSI</text><text x="55" y="88" font-family="Noto Sans" font-size="29" font-weight="800" fill="#1A1614" text-anchor="start">Alur Inferensi pada MesinSentimen.predict()</text><text x="56" y="116" font-family="Noto Sans" font-size="15" font-weight="400" fill="#5C564F" text-anchor="start">Prapemrosesan sama persis dengan pelatihan; aturan pasti menutup kasus yang sulit</text><rect x="56" y="132" width="64" height="4" rx="2" fill="#1baf7a"/><text x="1144" y="52" font-family="Noto Sans" font-size="13" font-weight="700" fill="#8A837A" text-anchor="end">inference.py</text><rect x="120" y="171" width="640" height="72.0" rx="13" ry="13" fill="#1a140f" opacity="0.06"/><rect x="120" y="168" width="640" height="72.0" rx="13" ry="13" fill="#FCEED1" stroke="#E0A83A" stroke-width="1.8"/><rect x="120" y="179" width="5" height="50.0" rx="2.5" fill="#E0A83A"/><text x="138" y="197.5" font-family="Noto Sans" font-size="15.5" font-weight="700" fill="#1A1614" text-anchor="start">Teks masuk (mentah, boleh kotor)</text><text x="138" y="216.0" font-family="Noto Sans" font-size="12.5" font-weight="400" fill="#5C564F" text-anchor="start">emoji, campur bahasa, hingga string kosong tetap aman</text><rect x="120" y="269.0" width="640" height="72.0" rx="13" ry="13" fill="#1a140f" opacity="0.06"/><rect x="120" y="266.0" width="640" height="72.0" rx="13" ry="13" fill="#E0F2EA" stroke="#1F9E72" stroke-width="1.8"/><rect x="120" y="277.0" width="5" height="50.0" rx="2.5" fill="#1F9E72"/><text x="138" y="295.5" font-family="Noto Sans" font-size="15.5" font-weight="700" fill="#1A1614" text-anchor="start">bersihkan(): sama seperti pelatihan</text><text x="138" y="314.0" font-family="Noto Sans" font-size="12.5" font-weight="400" fill="#5C564F" text-anchor="start">NFKC, buang kontrol, rapikan spasi, tanpa beda perlakuan</text><path d="M440.0 240.0 L440.0 266.0" fill="none" stroke="#7C766C" stroke-width="2.0" marker-end="url(#arw)" stroke-linecap="round" stroke-linejoin="round"/><rect x="120" y="367.0" width="640" height="72.0" rx="13" ry="13" fill="#1a140f" opacity="0.06"/><rect x="120" y="364.0" width="640" height="72.0" rx="13" ry="13" fill="#E0F2EA" stroke="#1F9E72" stroke-width="1.8"/><rect x="120" y="375.0" width="5" height="50.0" rx="2.5" fill="#1F9E72"/><text x="138" y="393.5" font-family="Noto Sans" font-size="15.5" font-weight="700" fill="#1A1614" text-anchor="start">Pengaman string kosong</text><text x="138" y="412.0" font-family="Noto Sans" font-size="12.5" font-weight="400" fill="#5C564F" text-anchor="start">teks kosong disisipi zero-width space agar tokenizer tidak gagal</text><path d="M440.0 338.0 L440.0 364.0" fill="none" stroke="#7C766C" stroke-width="2.0" marker-end="url(#arw)" stroke-linecap="round" stroke-linejoin="round"/><rect x="120" y="465.0" width="640" height="72.0" rx="13" ry="13" fill="#1a140f" opacity="0.06"/><rect x="120" y="462.0" width="640" height="72.0" rx="13" ry="13" fill="#E1EFEB" stroke="#0E6B5E" stroke-width="1.8"/><rect x="120" y="473.0" width="5" height="50.0" rx="2.5" fill="#0E6B5E"/><text x="138" y="491.5" font-family="Noto Sans" font-size="15.5" font-weight="700" fill="#1A1614" text-anchor="start">Tokenisasi</text><text x="138" y="510.0" font-family="Noto Sans" font-size="12.5" font-weight="400" fill="#5C564F" text-anchor="start">truncation, max_len 128, padding per batch</text><path d="M440.0 436.0 L440.0 462.0" fill="none" stroke="#7C766C" stroke-width="2.0" marker-end="url(#arw)" stroke-linecap="round" stroke-linejoin="round"/><rect x="120" y="563.0" width="640" height="72.0" rx="13" ry="13" fill="#1a140f" opacity="0.06"/><rect x="120" y="560.0" width="640" height="72.0" rx="13" ry="13" fill="#E1EFEB" stroke="#0E6B5E" stroke-width="1.8"/><rect x="120" y="571.0" width="5" height="50.0" rx="2.5" fill="#0E6B5E"/><text x="138" y="589.5" font-family="Noto Sans" font-size="15.5" font-weight="700" fill="#1A1614" text-anchor="start">Encoder dan tiga kepala menghasilkan logits</text><text x="138" y="608.0" font-family="Noto Sans" font-size="12.5" font-weight="400" fill="#5C564F" text-anchor="start">spam, sikap, dan emosi dihitung sekali jalan</text><path d="M440.0 534.0 L440.0 560.0" fill="none" stroke="#7C766C" stroke-width="2.0" marker-end="url(#arw)" stroke-linecap="round" stroke-linejoin="round"/><rect x="120" y="661.0" width="640" height="72.0" rx="13" ry="13" fill="#1a140f" opacity="0.06"/><rect x="120" y="658.0" width="640" height="72.0" rx="13" ry="13" fill="#F6E7F1" stroke="#B0559A" stroke-width="1.8"/><rect x="120" y="669.0" width="5" height="50.0" rx="2.5" fill="#B0559A"/><text x="138" y="687.5" font-family="Noto Sans" font-size="15.5" font-weight="700" fill="#1A1614" text-anchor="start">Kalibrasi: softmax(logits / suhu)</text><text x="138" y="706.0" font-family="Noto Sans" font-size="12.5" font-weight="400" fill="#5C564F" text-anchor="start">menghasilkan probabilitas terkalibrasi tiap tugas</text><path d="M440.0 632.0 L440.0 658.0" fill="none" stroke="#7C766C" stroke-width="2.0" marker-end="url(#arw)" stroke-linecap="round" stroke-linejoin="round"/><rect x="120" y="759.0" width="640" height="72.0" rx="13" ry="13" fill="#1a140f" opacity="0.06"/><rect x="120" y="756.0" width="640" height="72.0" rx="13" ry="13" fill="#E6EDF9" stroke="#3F6FB0" stroke-width="1.8"/><rect x="120" y="767.0" width="5" height="50.0" rx="2.5" fill="#3F6FB0"/><text x="138" y="785.5" font-family="Noto Sans" font-size="15.5" font-weight="700" fill="#1A1614" text-anchor="start">argmax memilih kelas dan keyakinan</text><text x="138" y="804.0" font-family="Noto Sans" font-size="12.5" font-weight="400" fill="#5C564F" text-anchor="start">abstain bila keyakinan di bawah ambang tugas</text><path d="M440.0 730.0 L440.0 756.0" fill="none" stroke="#7C766C" stroke-width="2.0" marker-end="url(#arw)" stroke-linecap="round" stroke-linejoin="round"/><polygon points="440.0,854.0 590.0,906.0 440.0,958.0 290.0,906.0" fill="#FCEED1" stroke="#E0A83A" stroke-width="1.8"/><text x="440.0" y="911.25" font-family="Noto Sans" font-size="12.5" font-weight="600" fill="#1A1614" text-anchor="middle">spam?</text><path d="M440.0 828.0 L440.0 854.0" fill="none" stroke="#7C766C" stroke-width="2.0" marker-end="url(#arw)" stroke-linecap="round" stroke-linejoin="round"/><rect x="820" y="875.0" width="320" height="68.5" rx="13" ry="13" fill="#1a140f" opacity="0.06"/><rect x="820" y="872.0" width="320" height="68.5" rx="13" ry="13" fill="#FBE2E1" stroke="#D65A59" stroke-width="1.8"/><rect x="820" y="883.0" width="5" height="46.5" rx="2.5" fill="#D65A59"/><text x="838" y="899.5" font-family="Noto Sans" font-size="13.5" font-weight="700" fill="#1A1614" text-anchor="start">sikap dijadikan tak_jelas</text><text x="838" y="916.5" font-family="Noto Sans" font-size="11" font-weight="400" fill="#5C564F" text-anchor="start">komentar spam tidak diberi sikap</text><path d="M590.0 906.0 L820 906.0" fill="none" stroke="#D65A59" stroke-width="2.0" marker-end="url(#arwR)" stroke-linecap="round" stroke-linejoin="round"/><rect x="691.28" y="882.0" width="27.44" height="22" rx="11.0" fill="#FFFFFF" stroke="#E3DED6" stroke-width="1"/><text x="705.0" y="897.08" font-family="Noto Sans" font-size="12" font-weight="600" fill="#5C564F" text-anchor="middle">ya</text><polygon points="440.0,980.0 590.0,1032.0 440.0,1084.0 290.0,1032.0" fill="#FCEED1" stroke="#E0A83A" stroke-width="1.8"/><text x="440.0" y="1037.25" font-family="Noto Sans" font-size="12.5" font-weight="600" fill="#1A1614" text-anchor="middle">hanya emoji?</text><path d="M440.0 958.0 L440.0 980.0" fill="none" stroke="#7C766C" stroke-width="2.0" marker-end="url(#arw)" stroke-linecap="round" stroke-linejoin="round"/><rect x="416.2" y="958.0" width="47.6" height="22" rx="11.0" fill="#FFFFFF" stroke="#E3DED6" stroke-width="1"/><text x="440.0" y="973.08" font-family="Noto Sans" font-size="12" font-weight="600" fill="#5C564F" text-anchor="middle">tidak</text><rect x="820" y="995.0" width="320" height="85.5" rx="13" ry="13" fill="#1a140f" opacity="0.06"/><rect x="820" y="992.0" width="320" height="85.5" rx="13" ry="13" fill="#F6E7F1" stroke="#B0559A" stroke-width="1.8"/><rect x="820" y="1003.0" width="5" height="63.5" rx="2.5" fill="#B0559A"/><text x="838" y="1019.5" font-family="Noto Sans" font-size="13.5" font-weight="700" fill="#1A1614" text-anchor="start">Aturan emoji yang pasti</text><text x="838" y="1036.5" font-family="Noto Sans" font-size="11" font-weight="400" fill="#5C564F" text-anchor="start">sikap menjadi tak_jelas; emosi diambil</text><text x="838" y="1053.5" font-family="Noto Sans" font-size="11" font-weight="400" fill="#5C564F" text-anchor="start">dari peta emoji; abstain emosi dimatikan</text><path d="M590.0 1032.0 L820 1032.0" fill="none" stroke="#199e70" stroke-width="2.0" marker-end="url(#arwG)" stroke-linecap="round" stroke-linejoin="round"/><rect x="691.28" y="1008.0" width="27.44" height="22" rx="11.0" fill="#FFFFFF" stroke="#E3DED6" stroke-width="1"/><text x="705.0" y="1023.08" font-family="Noto Sans" font-size="12" font-weight="600" fill="#5C564F" text-anchor="middle">ya</text><rect x="120" y="1127.0" width="700" height="90.5" rx="13" ry="13" fill="#1a140f" opacity="0.06"/><rect x="120" y="1124.0" width="700" height="90.5" rx="13" ry="13" fill="#DDEDE5" stroke="#0E4D45" stroke-width="1.8"/><rect x="120" y="1135.0" width="5" height="68.5" rx="2.5" fill="#0E4D45"/><text x="138" y="1153.5" font-family="Noto Sans" font-size="15.5" font-weight="700" fill="#1A1614" text-anchor="start">Prediksi (objek hasil)</text><text x="138" y="1172.0" font-family="Noto Sans" font-size="12.5" font-weight="400" fill="#5C564F" text-anchor="start">spam (bool), sikap, emosi,</text><text x="138" y="1190.5" font-family="Noto Sans" font-size="12.5" font-weight="400" fill="#5C564F" text-anchor="start">keyakinan, abstain, dan prob (distribusi penuh tiap tugas)</text><path d="M440.0 1084.0 L440.0 1124.0" fill="none" stroke="#7C766C" stroke-width="2.0" marker-end="url(#arw)" stroke-linecap="round" stroke-linejoin="round"/><rect x="416.2" y="1093.0" width="47.6" height="22" rx="11.0" fill="#FFFFFF" stroke="#E3DED6" stroke-width="1"/><text x="440.0" y="1108.08" font-family="Noto Sans" font-size="12" font-weight="600" fill="#5C564F" text-anchor="middle">tidak</text><path d="M1140 906.0 L1170 906.0 L1170 1169.25 L820 1169.25" fill="none" stroke="#D65A59" stroke-width="1.5" stroke-dasharray="7 5" marker-end="url(#arwR)" stroke-linecap="round" stroke-linejoin="round"/><path d="M1140 1034.0 L1156 1034.0 L1156 1179.25 L820 1179.25" fill="none" stroke="#199e70" stroke-width="1.5" stroke-dasharray="7 5" marker-end="url(#arwG)" stroke-linecap="round" stroke-linejoin="round"/><text x="120" y="1250.5" font-family="Noto Sans" font-size="13" font-weight="600" fill="#5C564F" text-anchor="start">Aturan spam dan emoji menimpa kelas hasil argmax sebelum prediksi akhir dikembalikan.</text></svg>