<svg xmlns="http://www.w3.org/2000/svg" width="1300" height="800" viewBox="0 0 1300 800"><defs><marker id="arw" viewBox="0 0 10 10" refX="8.5" refY="5" markerWidth="7.5" markerHeight="7.5" orient="auto-start-reverse"><path d="M0 0 L10 5 L0 10 z" fill="#7C766C"/></marker><marker id="arwR" viewBox="0 0 10 10" refX="8.5" refY="5" markerWidth="7.5" markerHeight="7.5" orient="auto-start-reverse"><path d="M0 0 L10 5 L0 10 z" fill="#D65A59"/></marker><marker id="arwG" viewBox="0 0 10 10" refX="8.5" refY="5" markerWidth="7.5" markerHeight="7.5" orient="auto-start-reverse"><path d="M0 0 L10 5 L0 10 z" fill="#199e70"/></marker></defs><text x="56" y="52" font-family="Noto Sans" font-size="13" font-weight="700" fill="#1F9E72" text-anchor="start" letter-spacing="2.5">PENYAJIAN . COBA MODEL</text><text x="55" y="88" font-family="Noto Sans" font-size="29" font-weight="800" fill="#1A1614" text-anchor="start">Arsitektur Inferensi Langsung pada Aplikasi</text><text x="56" y="116" font-family="Noto Sans" font-size="15" font-weight="400" fill="#5C564F" text-anchor="start">Streamlit tetap ringan tanpa GPU; inferensi berat berjalan di Space HuggingFace</text><rect x="56" y="132" width="64" height="4" rx="2" fill="#1baf7a"/><text x="1244" y="52" font-family="Noto Sans" font-size="13" font-weight="700" fill="#8A837A" text-anchor="end">app.py . space/app.py</text><rect x="60" y="213" width="220" height="90.0" rx="13" ry="13" fill="#1a140f" opacity="0.06"/><rect x="60" y="210" width="220" height="90.0" rx="13" ry="13" fill="#ECEAE5" stroke="#6B655C" stroke-width="1.8"/><rect x="60" y="221" width="5" height="68.0" rx="2.5" fill="#6B655C"/><text x="78" y="239" font-family="Noto Sans" font-size="15" font-weight="700" fill="#1A1614" text-anchor="start">Pengguna</text><text x="78" y="257.5" font-family="Noto Sans" font-size="12.5" font-weight="400" fill="#5C564F" text-anchor="start">mengetik komentar</text><text x="78" y="276.0" font-family="Noto Sans" font-size="12.5" font-weight="400" fill="#5C564F" text-anchor="start">pada halaman Coba Model</text><rect x="330" y="213" width="300" height="90.0" rx="13" ry="13" fill="#1a140f" opacity="0.06"/><rect x="330" y="210" width="300" height="90.0" rx="13" ry="13" fill="#DDEDE5" stroke="#0E4D45" stroke-width="1.8"/><rect x="330" y="221" width="5" height="68.0" rx="2.5" fill="#0E4D45"/><text x="348" y="239" font-family="Noto Sans" font-size="15" font-weight="700" fill="#1A1614" text-anchor="start">Streamlit Cloud</text><text x="348" y="257.5" font-family="Noto Sans" font-size="12.5" font-weight="400" fill="#5C564F" text-anchor="start">aplikasi ringan tanpa torch,</text><text x="348" y="276.0" font-family="Noto Sans" font-size="12.5" font-weight="400" fill="#5C564F" text-anchor="start">memanggil lewat requests</text><rect x="720" y="213" width="340" height="90.0" rx="13" ry="13" fill="#1a140f" opacity="0.06"/><rect x="720" y="210" width="340" height="90.0" rx="13" ry="13" fill="#E1EFEB" stroke="#0E6B5E" stroke-width="1.8"/><rect x="720" y="221" width="5" height="68.0" rx="2.5" fill="#0E6B5E"/><text x="738" y="239" font-family="Noto Sans" font-size="15" font-weight="700" fill="#1A1614" text-anchor="start">Space HuggingFace (Gradio)</text><text x="738" y="257.5" font-family="Noto Sans" font-size="12.5" font-weight="400" fill="#5C564F" text-anchor="start">hardware ZeroGPU atau CPU basic,</text><text x="738" y="276.0" font-family="Noto Sans" font-size="12.5" font-weight="400" fill="#5C564F" text-anchor="start">endpoint /gradio_api/call/analisis</text><path d="M280 255.0 L330 255.0" fill="none" stroke="#7C766C" stroke-width="2.0" marker-end="url(#arw)" stroke-linecap="round" stroke-linejoin="round"/><path d="M630 255.0 L720 255.0" fill="none" stroke="#7C766C" stroke-width="2.0" marker-end="url(#arw)" stroke-linecap="round" stroke-linejoin="round"/><rect x="597.44" y="228.0" width="155.12" height="22" rx="11.0" fill="#FFFFFF" stroke="#E3DED6" stroke-width="1"/><text x="675.0" y="243.08" font-family="Noto Sans" font-size="12" font-weight="600" fill="#5C564F" text-anchor="middle">permintaan (requests)</text><path d="M720 289.0 L630 289.0" fill="none" stroke="#199e70" stroke-width="2.0" marker-end="url(#arwG)" stroke-linecap="round" stroke-linejoin="round"/><rect x="573.92" y="294.0" width="202.16000000000003" height="22" rx="11.0" fill="#FFFFFF" stroke="#E3DED6" stroke-width="1"/><text x="675.0" y="309.08" font-family="Noto Sans" font-size="12" font-weight="600" fill="#5C564F" text-anchor="middle">balasan SSE (event complete)</text><rect x="720" y="349.0" width="340" height="68.5" rx="13" ry="13" fill="#1a140f" opacity="0.06"/><rect x="720" y="346.0" width="340" height="68.5" rx="13" ry="13" fill="#F0EDE8" stroke="#9A9186" stroke-width="1.8"/><rect x="720" y="357.0" width="5" height="46.5" rx="2.5" fill="#9A9186"/><text x="738" y="373.5" font-family="Noto Sans" font-size="13.5" font-weight="700" fill="#1A1614" text-anchor="start">Memuat bobot (snapshot_download)</text><text x="738" y="390.5" font-family="Noto Sans" font-size="11" font-weight="400" fill="#5C564F" text-anchor="start">dari repo model indobert-sentimen-chromebook</text><rect x="720" y="437.5" width="340" height="68.5" rx="13" ry="13" fill="#1a140f" opacity="0.06"/><rect x="720" y="434.5" width="340" height="68.5" rx="13" ry="13" fill="#E1EFEB" stroke="#0E6B5E" stroke-width="1.8"/><rect x="720" y="445.5" width="5" height="46.5" rx="2.5" fill="#0E6B5E"/><text x="738" y="462.0" font-family="Noto Sans" font-size="13.5" font-weight="700" fill="#1A1614" text-anchor="start">inference.py . MesinSentimen</text><text x="738" y="479.0" font-family="Noto Sans" font-size="11" font-weight="400" fill="#5C564F" text-anchor="start">memakai GPU (@spaces.GPU) saat tersedia</text><path d="M890.0 300.0 L890.0 346.0" fill="none" stroke="#7C766C" stroke-width="1.6" stroke-dasharray="7 5" marker-end="url(#arw)" stroke-linecap="round" stroke-linejoin="round"/><path d="M890.0 414.5 L890.0 434.5" fill="none" stroke="#7C766C" stroke-width="1.6" marker-end="url(#arw)" stroke-linecap="round" stroke-linejoin="round"/><rect x="330" y="437.5" width="300" height="85.5" rx="13" ry="13" fill="#1a140f" opacity="0.06"/><rect x="330" y="434.5" width="300" height="85.5" rx="13" ry="13" fill="#FBE2E1" stroke="#D65A59" stroke-width="1.8"/><rect x="330" y="445.5" width="5" height="63.5" rx="2.5" fill="#D65A59"/><text x="348" y="462.0" font-family="Noto Sans" font-size="13.5" font-weight="700" fill="#1A1614" text-anchor="start">Cadangan: model torch lokal</text><text x="348" y="479.0" font-family="Noto Sans" font-size="11" font-weight="400" fill="#5C564F" text-anchor="start">dipakai bila kuota ZeroGPU habis</text><text x="348" y="496.0" font-family="Noto Sans" font-size="11" font-weight="400" fill="#5C564F" text-anchor="start">dan hanya berjalan di lingkungan lokal</text><path d="M480.0 300.0 L480.0 434.5" fill="none" stroke="#D65A59" stroke-width="2.0" stroke-dasharray="7 5" marker-end="url(#arwR)" stroke-linecap="round" stroke-linejoin="round"/><rect x="439.4" y="356.25" width="81.2" height="22" rx="11.0" fill="#FFFFFF" stroke="#E3DED6" stroke-width="1"/><text x="480.0" y="371.33" font-family="Noto Sans" font-size="12" font-weight="600" fill="#5C564F" text-anchor="middle">bila gagal</text><rect x="60" y="437.5" width="220" height="86" rx="13" ry="13" fill="#1a140f" opacity="0.06"/><rect x="60" y="434.5" width="220" height="86" rx="13" ry="13" fill="#E6EDF9" stroke="#3F6FB0" stroke-width="1.8"/><rect x="60" y="445.5" width="5" height="64" rx="2.5" fill="#3F6FB0"/><text x="78" y="462.5" font-family="Noto Sans" font-size="14" font-weight="700" fill="#1A1614" text-anchor="start">Kartu prediksi</text><text x="78" y="479.5" font-family="Noto Sans" font-size="11" font-weight="400" fill="#5C564F" text-anchor="start">sikap, emosi, keyakinan,</text><text x="78" y="496.5" font-family="Noto Sans" font-size="11" font-weight="400" fill="#5C564F" text-anchor="start">penanda "model ragu"</text><path d="M480.0 300.0 L480.0 416.5 L170.0 416.5 L170.0 434.5" fill="none" stroke="#7C766C" stroke-width="1.6" marker-end="url(#arw)" stroke-linecap="round" stroke-linejoin="round"/></svg>